o Cone_Cone.001
v 0.306147 1.000000 -0.739104
v 0.248744 1.300000 -0.600522
v 0.444456 1.000000 -0.665176
v 0.361121 1.300000 -0.540455
v 0.565685 1.000000 -0.565685
v 0.459619 1.300000 -0.459619
v 0.665176 1.000000 -0.444456
v 0.540455 1.300000 -0.361121
v 0.739104 1.000000 -0.306147
v 0.600522 1.300000 -0.248744
v 0.739104 1.000000 0.306147
v 0.600522 1.300000 0.248744
v 0.665176 1.000000 0.444456
v 0.540455 1.300000 0.361121
v 0.565685 1.000000 0.565685
v 0.459619 1.300000 0.459619
v 0.444456 1.000000 0.665176
v 0.361121 1.300000 0.540455
v 0.306147 1.000000 0.739104
v 0.248744 1.300000 0.600522
v -0.306147 1.000000 0.739103
v -0.248745 1.300000 0.600522
v -0.444457 1.000000 0.665175
v -0.361121 1.300000 0.540455
v -0.565686 1.000000 0.565685
v -0.459620 1.300000 0.459619
v -0.665176 1.000000 0.444456
v -0.540455 1.300000 0.361120
v -0.739104 1.000000 0.306146
v -0.600522 1.300000 0.248744
v -0.739103 1.000000 -0.306148
v -0.600521 1.300000 -0.248745
v -0.665175 1.000000 -0.444457
v -0.540455 1.300000 -0.361121
v -0.565685 1.000000 -0.565686
v -0.459619 1.300000 -0.459620
v -0.444455 1.000000 -0.665176
v -0.361120 1.300000 -0.540456
v -0.306146 1.000000 -0.739104
v -0.248743 1.300000 -0.600522
v 0.186558 1.300000 -0.450391
v 0.229610 1.000000 -0.554328
v 0.333342 1.000000 -0.498882
v 0.270840 1.300000 -0.405341
v 0.424264 1.000000 -0.424264
v 0.344715 1.300000 -0.344715
v 0.498882 1.000000 -0.333342
v 0.405341 1.300000 -0.270841
v 0.554328 1.000000 -0.229610
v 0.450391 1.300000 -0.186558
v 0.450391 1.300000 0.186558
v 0.554328 1.000000 0.229610
v 0.498882 1.000000 0.333342
v 0.405341 1.300000 0.270840
v 0.424264 1.000000 0.424264
v 0.344715 1.300000 0.344714
v 0.333342 1.000000 0.498882
v 0.270840 1.300000 0.405341
v 0.229610 1.000000 0.554328
v 0.186558 1.300000 0.450391
v -0.186558 1.300000 0.450391
v -0.229610 1.000000 0.554328
v -0.333342 1.000000 0.498882
v -0.270841 1.300000 0.405341
v -0.424264 1.000000 0.424264
v -0.344715 1.300000 0.344714
v -0.498882 1.000000 0.333342
v -0.405342 1.300000 0.270840
v -0.554328 1.000000 0.229610
v -0.450391 1.300000 0.186558
v -0.450391 1.300000 -0.186559
v -0.554327 1.000000 -0.229611
v -0.498881 1.000000 -0.333343
v -0.405341 1.300000 -0.270841
v -0.424264 1.000000 -0.424265
v -0.344714 1.300000 -0.344715
v -0.333341 1.000000 -0.498882
v -0.270840 1.300000 -0.405342
v -0.229609 1.000000 -0.554328
v -0.186557 1.300000 -0.450392
vn 0.4220 0.4455 -0.7896
vn 0.4969 0.4472 -0.7437
vn 0.6325 0.4472 -0.6325
vn 0.7437 0.4472 -0.4969
vn 0.7896 0.4455 -0.4220
vn 0.7896 0.4455 0.4220
vn 0.7437 0.4472 0.4969
vn 0.6325 0.4472 0.6325
vn 0.4969 0.4472 0.7437
vn 0.4220 0.4455 0.7896
vn -0.4220 0.4455 0.7896
vn -0.4969 0.4472 0.7437
vn -0.6325 0.4472 0.6325
vn -0.7437 0.4472 0.4969
vn -0.7896 0.4455 0.4220
vn -0.7896 0.4455 -0.4220
vn -0.7437 0.4472 -0.4969
vn -0.6325 0.4472 -0.6325
vn -0.4969 0.4472 -0.7437
vn -0.4220 0.4455 -0.7896
vn -0.4416 -0.3496 0.8263
vn -0.5202 -0.3511 0.7785
vn -0.6621 -0.3511 0.6621
vn -0.7785 -0.3511 0.5202
vn -0.8263 -0.3496 0.4416
vn -0.8263 -0.3496 -0.4416
vn -0.7785 -0.3511 -0.5202
vn -0.6621 -0.3511 -0.6621
vn -0.5202 -0.3511 -0.7785
vn -0.4416 -0.3496 -0.8263
vn 0.4416 -0.3496 -0.8263
vn 0.5202 -0.3511 -0.7785
vn 0.6621 -0.3511 -0.6621
vn 0.7785 -0.3511 -0.5202
vn 0.8263 -0.3496 -0.4416
vn 0.8263 -0.3496 0.4416
vn 0.7785 -0.3511 0.5202
vn 0.6621 -0.3511 0.6621
vn 0.5202 -0.3511 0.7785
vn 0.4416 -0.3496 0.8263
vn 0.0000 1.0000 0.0000
vn 0.9239 0.0000 -0.3827
vn -0.3827 0.0000 -0.9239
vn -0.9239 0.0000 0.3827
vn 0.3827 -0.0000 0.9239
vn -0.3827 -0.0000 0.9239
vn 0.9239 -0.0000 0.3827
vn 0.3827 0.0000 -0.9239
vn -0.9239 -0.0000 -0.3827
s 1
f 1//1 2//1 4//2 3//2
f 3//2 4//2 6//3 5//3
f 5//3 6//3 8//4 7//4
f 7//4 8//4 10//5 9//5
f 11//6 12//6 14//7 13//7
f 13//7 14//7 16//8 15//8
f 15//8 16//8 18//9 17//9
f 17//9 18//9 20//10 19//10
f 21//11 22//11 24//12 23//12
f 23//12 24//12 26//13 25//13
f 25//13 26//13 28//14 27//14
f 27//14 28//14 30//15 29//15
f 31//16 32//16 34//17 33//17
f 33//17 34//17 36//18 35//18
f 35//18 36//18 38//19 37//19
f 37//19 38//19 40//20 39//20
f 42//21 43//22 44//22 41//21
f 43//22 45//23 46//23 44//22
f 45//23 47//24 48//24 46//23
f 47//24 49//25 50//25 48//24
f 52//26 53//27 54//27 51//26
f 53//27 55//28 56//28 54//27
f 55//28 57//29 58//29 56//28
f 57//29 59//30 60//30 58//29
f 62//31 63//32 64//32 61//31
f 63//32 65//33 66//33 64//32
f 65//33 67//34 68//34 66//33
f 67//34 69//35 70//35 68//34
f 72//36 73//37 74//37 71//36
f 73//37 75//38 76//38 74//37
f 75//38 77//39 78//39 76//38
f 77//39 79//40 80//40 78//39
f 34//41 74//41 76//41 36//41
f 24//41 64//41 66//41 26//41
f 14//41 54//41 56//41 16//41
f 4//41 44//41 46//41 6//41
f 36//41 76//41 78//41 38//41
f 26//41 66//41 68//41 28//41
f 16//41 56//41 58//41 18//41
f 6//41 46//41 48//41 8//41
f 38//41 78//41 80//41 40//41
f 28//41 68//41 70//41 30//41
f 18//41 58//41 60//41 20//41
f 40//42 80//42 79//42 39//42
f 8//41 48//41 50//41 10//41
f 30//43 70//43 69//43 29//43
f 20//44 60//44 59//44 19//44
f 10//45 50//45 49//45 9//45
f 31//46 72//46 71//46 32//46
f 21//47 62//47 61//47 22//47
f 11//48 52//48 51//48 12//48
f 1//49 42//49 41//49 2//49
f 32//41 71//41 74//41 34//41
f 22//41 61//41 64//41 24//41
f 12//41 51//41 54//41 14//41
f 2//41 41//41 44//41 4//41
o Cube
v 1.000000 -1.000000 -1.000000
v 1.000000 -1.000000 1.000000
v -1.000000 -1.000000 1.000000
v -1.000000 -1.000000 -1.000000
v 1.000000 1.000000 -0.999999
v 0.999999 1.000000 1.000001
v -1.000000 1.000000 1.000000
v -1.000000 1.000000 -1.000000
vn 0.0000 -1.0000 0.0000
vn 0.0000 1.0000 0.0000
vn 1.0000 0.0000 0.0000
vn -0.0000 -0.0000 1.0000
vn -1.0000 -0.0000 -0.0000
vn 0.0000 0.0000 -1.0000
s off
f 81//50 82//50 83//50 84//50
f 85//51 88//51 87//51 86//51
f 81//52 85//52 86//52 82//52
f 82//53 86//53 87//53 83//53
f 83//54 87//54 88//54 84//54
f 85//55 81//55 84//55 88//55
