# Blender v2.79 (sub 0) OBJ File: 'fuel_tank.blend'
# www.blender.org
o Cube
v 1.000000 -0.850000 -0.850000
v 0.850000 -1.000000 -0.700000
v 0.850000 -0.700000 -1.000000
v 1.000000 -0.850000 0.850000
v 0.850000 -0.700000 1.000000
v 0.850000 -1.000000 0.700000
v -0.850000 -0.700000 1.000000
v -1.000000 -0.850000 0.850000
v -0.850000 -1.000000 0.700000
v -0.850000 -0.700000 -1.000000
v -0.850000 -1.000000 -0.700000
v -1.000000 -0.850000 -0.850000
v 0.850000 0.700000 -1.000000
v 0.850000 1.000000 -0.700000
v 1.000000 0.850000 -0.849999
v 0.850000 0.700000 1.000000
v 0.999999 0.850000 0.850001
v 0.850000 1.000000 0.700000
v -1.000000 0.850000 0.850000
v -0.850000 0.700000 1.000000
v -0.850000 1.000000 0.700000
v -1.000000 0.850000 -0.850000
v -0.850000 1.000000 -0.700000
v -0.850000 0.700000 -1.000000
vn 0.0000 0.0000 -1.0000
vn 0.0000 -1.0000 0.0000
vn -1.0000 -0.0000 -0.0000
vn 0.0000 1.0000 0.0000
vn -0.0000 -0.0000 1.0000
vn 0.0000 -0.7071 -0.7071
vn 0.0000 0.7071 -0.7071
vn 0.7071 -0.7071 0.0000
vn 0.7071 0.0000 -0.7071
vn 0.7071 0.0000 0.7071
vn -0.7071 -0.7071 -0.0000
vn -0.7071 -0.0000 0.7071
vn -0.7071 0.0000 -0.7071
vn 0.7071 0.7071 0.0000
vn 0.0000 -0.7071 0.7071
vn 0.0000 0.7071 0.7071
vn -0.7071 0.7071 0.0000
vn 1.0000 -0.0000 0.0000
s off
f 3//1 24//1 13//1
f 2//2 9//2 11//2
f 19//3 12//3 8//3
f 23//4 18//4 14//4
f 16//5 7//5 5//5
f 11//6 12//6 10//6
f 23//7 14//7 13//7
f 4//8 2//8 1//8
f 13//9 1//9 3//9
f 17//10 5//10 4//10
f 12//11 9//11 8//11
f 7//12 19//12 8//12
f 12//13 24//13 10//13
f 18//14 15//14 14//14
f 7//15 8//15 9//15
f 21//16 19//16 20//16
f 23//17 19//17 21//17
f 15//18 4//18 1//18
f 3//1 10//1 24//1
f 2//2 6//2 9//2
f 19//3 22//3 12//3
f 23//4 21//4 18//4
f 16//5 20//5 7//5
f 10//6 3//6 11//6
f 3//6 1//6 2//6
f 11//6 3//6 2//6
f 14//7 15//7 13//7
f 13//7 24//7 23//7
f 24//7 22//7 23//7
f 4//8 6//8 2//8
f 13//9 15//9 1//9
f 17//10 16//10 5//10
f 12//11 11//11 9//11
f 7//12 20//12 19//12
f 12//13 22//13 24//13
f 18//14 17//14 15//14
f 9//15 6//15 7//15
f 6//15 4//15 5//15
f 7//15 6//15 5//15
f 20//16 16//16 18//16
f 16//16 17//16 18//16
f 18//16 21//16 20//16
f 23//17 22//17 19//17
f 15//18 17//18 4//18
