# Blender v2.79 (sub 0) OBJ File: 'shell.blend'
# www.blender.org
o BezierCurve_CUBezierCurve
v 0.766045 -0.642788 -3.552715
v 0.766044 -0.642788 -0.217679
v 0.668261 -0.560738 0.725916
v 0.400246 -0.335846 1.612395
v 0.173649 -0.984809 -3.552715
v 0.173648 -0.984808 -0.217679
v 0.151482 -0.859100 0.725916
v 0.090728 -0.514546 1.612395
v -0.500000 -0.866027 -3.552715
v -0.500000 -0.866026 -0.217679
v -0.436177 -0.755480 0.725916
v -0.261242 -0.452484 1.612395
v -0.939693 -0.342021 -3.552715
v -0.939693 -0.342020 -0.217679
v -0.819744 -0.298362 0.725916
v -0.490975 -0.178699 1.612395
v -0.939693 0.342019 -3.552715
v -0.939693 0.342020 -0.217679
v -0.819744 0.298363 0.725916
v -0.490974 0.178701 1.612395
v -0.500001 0.866025 -3.552715
v -0.500000 0.866025 -0.217679
v -0.436176 0.755480 0.725915
v -0.261242 0.452485 1.612395
v 0.173648 0.984807 -3.552715
v 0.173648 0.984808 -0.217679
v 0.151483 0.859100 0.725915
v 0.090729 0.514547 1.612395
v 0.766044 0.642787 -3.552715
v 0.766045 0.642788 -0.217679
v 0.668261 0.560738 0.725915
v 0.400247 0.335846 1.612395
v 1.000000 -0.000000 -3.552715
v 1.000000 -0.000000 -0.217679
v 0.872353 -0.000000 0.725915
v 0.522484 -0.000000 1.612395
v -0.000000 0.000000 2.525302
vn -0.0000 -0.0000 -1.0000
vn 0.9978 0.0000 0.0662
vn 0.5901 -0.4952 -0.6376
vn 0.7703 0.0000 -0.6376
vn 0.9692 0.0000 0.2462
vn 0.7643 -0.6413 0.0662
vn 0.9042 0.0000 0.4270
vn 0.7425 -0.6230 0.2462
vn 0.0000 0.0000 1.0000
vn 0.6927 -0.5812 0.4270
vn 0.1683 -0.9545 0.2462
vn 0.1570 -0.8905 0.4270
vn 0.1338 -0.7586 -0.6376
vn 0.1733 -0.9826 0.0662
vn -0.4989 -0.8641 0.0662
vn -0.4846 -0.8394 0.2462
vn -0.4521 -0.7831 0.4270
vn -0.3852 -0.6671 -0.6376
vn -0.7239 -0.2635 -0.6376
vn -0.9376 -0.3413 0.0662
vn -0.9107 -0.3315 0.2462
vn -0.8497 -0.3092 0.4270
vn -0.7239 0.2635 -0.6376
vn -0.9376 0.3413 0.0662
vn -0.9107 0.3315 0.2462
vn -0.8497 0.3092 0.4270
vn -0.3852 0.6671 -0.6376
vn -0.4989 0.8641 0.0662
vn -0.4846 0.8394 0.2462
vn -0.4521 0.7831 0.4270
vn 0.1338 0.7586 -0.6376
vn 0.1733 0.9826 0.0662
vn 0.1683 0.9545 0.2462
vn 0.1570 0.8905 0.4270
vn 0.6927 0.5812 0.4270
vn 0.5901 0.4952 -0.6376
vn 0.7643 0.6413 0.0662
vn 0.7425 0.6230 0.2462
s off
f 9//1 25//1 33//1
f 1//1 5//1 9//1
f 9//1 13//1 17//1
f 17//1 21//1 25//1
f 25//1 29//1 33//1
f 33//1 1//1 9//1
f 9//1 17//1 25//1
s 1
f 34//2 1//3 33//4
f 35//5 2//6 34//2
f 36//7 3//8 35//5
f 36//7 37//9 4//10
f 4//10 7//11 3//8
f 4//10 37//9 8//12
f 2//6 5//13 1//3
f 3//8 6//14 2//6
f 7//11 10//15 6//14
f 8//12 11//16 7//11
f 8//12 37//9 12//17
f 6//14 9//18 5//13
f 10//15 13//19 9//18
f 11//16 14//20 10//15
f 12//17 15//21 11//16
f 12//17 37//9 16//22
f 14//20 17//23 13//19
f 15//21 18//24 14//20
f 16//22 19//25 15//21
f 16//22 37//9 20//26
f 18//24 21//27 17//23
f 19//25 22//28 18//24
f 20//26 23//29 19//25
f 20//26 37//9 24//30
f 22//28 25//31 21//27
f 23//29 26//32 22//28
f 24//30 27//33 23//29
f 24//30 37//9 28//34
f 28//34 37//9 32//35
f 26//32 29//36 25//31
f 27//33 30//37 26//32
f 28//34 31//38 27//33
f 32//35 35//5 31//38
f 32//35 37//9 36//7
f 29//36 34//2 33//4
f 31//38 34//2 30//37
f 34//2 2//6 1//3
f 35//5 3//8 2//6
f 36//7 4//10 3//8
f 4//10 8//12 7//11
f 2//6 6//14 5//13
f 3//8 7//11 6//14
f 7//11 11//16 10//15
f 8//12 12//17 11//16
f 6//14 10//15 9//18
f 10//15 14//20 13//19
f 11//16 15//21 14//20
f 12//17 16//22 15//21
f 14//20 18//24 17//23
f 15//21 19//25 18//24
f 16//22 20//26 19//25
f 18//24 22//28 21//27
f 19//25 23//29 22//28
f 20//26 24//30 23//29
f 22//28 26//32 25//31
f 23//29 27//33 26//32
f 24//30 28//34 27//33
f 26//32 30//37 29//36
f 27//33 31//38 30//37
f 28//34 32//35 31//38
f 32//35 36//7 35//5
f 29//36 30//37 34//2
f 31//38 35//5 34//2
