# Blender v2.79 (sub 0) OBJ File: 'ammo_rack.blend'
# www.blender.org
o Cube
v 1.000000 -1.000000 0.900000
v -1.000000 -1.000000 0.900000
v 0.999999 -0.552544 0.900001
v -1.000000 -0.552544 0.900000
v 0.777777 -0.552544 0.900001
v 0.629333 -0.780723 0.900001
v 0.259555 -0.780723 0.900000
v 0.111111 -0.552544 0.900000
v -0.111112 -0.552544 0.900000
v -0.259573 -0.780723 0.900000
v -0.629317 -0.780723 0.900000
v -0.777778 -0.552544 0.900000
v 1.000000 -1.000000 -0.900000
v -1.000000 -1.000000 -0.900000
v 1.000000 -0.552543 -0.899999
v -1.000000 -0.552543 -0.900000
v 0.777778 -0.552543 -0.899999
v 0.629333 -0.780722 -0.899999
v 0.259555 -0.780722 -0.900000
v 0.111111 -0.552543 -0.900000
v -0.111111 -0.552543 -0.900000
v -0.259573 -0.780722 -0.900000
v -0.629316 -0.780722 -0.900000
v -0.777778 -0.552543 -0.900000
vn -0.0000 0.0000 1.0000
vn 0.0000 0.0000 -1.0000
vn -1.0000 -0.0000 -0.0000
vn -0.8382 0.5454 -0.0000
vn -0.0000 1.0000 0.0000
vn 0.0000 -1.0000 -0.0000
vn 0.8382 0.5453 0.0000
vn 0.8382 0.5454 0.0000
vn 1.0000 0.0000 0.0000
vn -0.8382 0.5453 -0.0000
s off
f 7//1 10//1 2//1
f 13//2 22//2 19//2
f 4//3 14//3 2//3
f 21//4 10//4 9//4
f 18//5 7//5 6//5
f 24//5 4//5 12//5
f 22//5 11//5 10//5
f 14//6 1//6 2//6
f 19//7 8//7 7//7
f 15//5 5//5 3//5
f 23//8 12//8 11//8
f 1//9 15//9 3//9
f 20//5 9//5 8//5
f 17//10 6//10 5//10
f 1//1 3//1 5//1
f 1//1 5//1 6//1
f 12//1 4//1 2//1
f 11//1 12//1 2//1
f 2//1 1//1 7//1
f 1//1 6//1 7//1
f 7//1 8//1 9//1
f 10//1 11//1 2//1
f 7//1 9//1 10//1
f 14//2 16//2 24//2
f 14//2 24//2 23//2
f 17//2 15//2 13//2
f 18//2 17//2 13//2
f 13//2 14//2 22//2
f 14//2 23//2 22//2
f 22//2 21//2 19//2
f 21//2 20//2 19//2
f 19//2 18//2 13//2
f 4//3 16//3 14//3
f 21//4 22//4 10//4
f 18//5 19//5 7//5
f 24//5 16//5 4//5
f 22//5 23//5 11//5
f 14//6 13//6 1//6
f 19//7 20//7 8//7
f 15//5 17//5 5//5
f 23//8 24//8 12//8
f 1//9 13//9 15//9
f 20//5 21//5 9//5
f 17//10 18//10 6//10
o Cube.001
v 1.000000 0.000000 0.900000
v -1.000000 0.000000 0.900000
v 0.999999 0.447456 0.900001
v -1.000000 0.447456 0.900000
v 0.777777 0.447456 0.900001
v 0.629333 0.219277 0.900001
v 0.259555 0.219277 0.900000
v 0.111111 0.447456 0.900000
v -0.111112 0.447456 0.900000
v -0.259573 0.219277 0.900000
v -0.629317 0.219277 0.900000
v -0.777778 0.447456 0.900000
v 1.000000 0.000000 -0.900000
v -1.000000 0.000000 -0.900000
v 1.000000 0.447457 -0.899999
v -1.000000 0.447457 -0.900000
v 0.777778 0.447457 -0.899999
v 0.629333 0.219278 -0.899999
v 0.259555 0.219278 -0.900000
v 0.111111 0.447457 -0.900000
v -0.111111 0.447457 -0.900000
v -0.259573 0.219278 -0.900000
v -0.629316 0.219278 -0.900000
v -0.777778 0.447457 -0.900000
vn -0.0000 0.0000 1.0000
vn 0.0000 0.0000 -1.0000
vn -1.0000 -0.0000 -0.0000
vn -0.8382 0.5454 -0.0000
vn -0.0000 1.0000 0.0000
vn 0.0000 -1.0000 -0.0000
vn 0.8382 0.5453 0.0000
vn 0.8382 0.5454 0.0000
vn 1.0000 0.0000 0.0000
vn -0.8382 0.5453 -0.0000
s off
f 31//11 34//11 26//11
f 37//12 46//12 43//12
f 28//13 38//13 26//13
f 45//14 34//14 33//14
f 42//15 31//15 30//15
f 48//15 28//15 36//15
f 46//15 35//15 34//15
f 38//16 25//16 26//16
f 43//17 32//17 31//17
f 39//15 29//15 27//15
f 47//18 36//18 35//18
f 25//19 39//19 27//19
f 44//15 33//15 32//15
f 41//20 30//20 29//20
f 25//11 27//11 29//11
f 25//11 29//11 30//11
f 36//11 28//11 26//11
f 35//11 36//11 26//11
f 26//11 25//11 31//11
f 25//11 30//11 31//11
f 31//11 32//11 33//11
f 34//11 35//11 26//11
f 31//11 33//11 34//11
f 38//12 40//12 48//12
f 38//12 48//12 47//12
f 41//12 39//12 37//12
f 42//12 41//12 37//12
f 37//12 38//12 46//12
f 38//12 47//12 46//12
f 46//12 45//12 43//12
f 45//12 44//12 43//12
f 43//12 42//12 37//12
f 28//13 40//13 38//13
f 45//14 46//14 34//14
f 42//15 43//15 31//15
f 48//15 40//15 28//15
f 46//15 47//15 35//15
f 38//16 37//16 25//16
f 43//17 44//17 32//17
f 39//15 41//15 29//15
f 47//18 48//18 36//18
f 25//19 37//19 39//19
f 44//15 45//15 33//15
f 41//20 42//20 30//20
